<svg viewBox="0 0 24 24" fill="none" xmlns="http://www.w3.org/2000/svg">
<path d="M18.9844 20V9.03125H5.01563V20H18.9844ZM15.9844 2H18V4.01563H18.9844C19.5156 4.01563 19.9843 4.21875 20.3906 4.625C20.7968 5.03125 21 5.5 21 6.03125V20C21 20.5312 20.7968 20.9999 20.3906 21.4063C19.9843 21.8125 19.5156 22.0156 18.9844 22.0156H5.01563C4.45313 22.0156 3.96875 21.8125 3.5625 21.4063C3.1875 20.9999 3 20.5312 3 20V6.03125C3 5.5 3.1875 5.03125 3.5625 4.625C3.96875 4.21875 4.45313 4.01563 5.01563 4.01563H6V2H8.01563V4.01563H15.9844V2ZM17.0156 13.0156V18.0313H12V13.0156H17.0156Z" fill="black"/>
</svg>
