<svg viewBox="0 0 24 24" fill="none" xmlns="http://www.w3.org/2000/svg">
<path d="M12.4648 7.47887V12.2113L16.5211 14.6197L15.845 15.7606L11.1127 12.8873V7.47887H12.4648ZM6.88732 17.1127C8.32394 18.5211 10.0282 19.2253 12 19.2253C13.9718 19.2253 15.662 18.5211 17.0704 17.1127C18.5071 15.676 19.2253 13.9718 19.2253 12C19.2253 10.0282 18.5071 8.33802 17.0704 6.92957C15.662 5.49295 13.9718 4.77465 12 4.77465C10.0282 4.77465 8.32394 5.49295 6.88732 6.92957C5.47887 8.33802 4.77465 10.0282 4.77465 12C4.77465 13.9718 5.47887 15.676 6.88732 17.1127ZM5.61972 5.66197C7.39436 3.88732 9.52112 3 12 3C14.4789 3 16.5916 3.88732 18.338 5.66197C20.1127 7.40845 21 9.52112 21 12C21 14.4789 20.1127 16.6056 18.338 18.3802C16.5916 20.1267 14.4789 21 12 21C9.52112 21 7.39436 20.1267 5.61972 18.3802C3.87324 16.6056 3 14.4789 3 12C3 9.52112 3.87324 7.40845 5.61972 5.66197Z" fill="black"/>
</svg>
