<svg viewBox="0 0 24 24" fill="none" xmlns="http://www.w3.org/2000/svg">
<path fill-rule="evenodd" clip-rule="evenodd" d="M2 11.9C2 6.43238 6.43238 2 11.9 2C17.3676 2 21.8 6.43238 21.8 11.9C21.8 17.3673 17.3681 21.7995 11.901 21.8H11.8972C6.43084 21.7985 2 17.3667 2 11.9ZM13.9469 19.7392C17.1481 18.9056 19.5788 16.1631 19.9506 12.8H16.3549C16.1531 15.2869 15.3208 17.674 13.9469 19.7392ZM16.3526 11H19.9506C19.5788 7.63681 17.1479 4.89421 13.9466 4.06077C15.3154 6.11925 16.1467 8.50126 16.3526 11ZM9.85313 4.06084C6.65193 4.89437 4.2212 7.63691 3.84943 11H7.44508C7.64686 8.51313 8.47919 6.12598 9.85313 4.06084ZM9.24929 11C9.46833 8.6011 10.3699 6.29391 11.8467 4.36482L11.9 4.296L11.9533 4.36488C13.4245 6.28703 14.3248 8.58716 14.5482 11H9.24929ZM9.25183 12.8H14.5507C14.3317 15.1989 13.4301 17.5061 11.9533 19.4352L11.899 19.503L11.8467 19.4351C10.3755 17.513 9.47522 15.2128 9.25183 12.8ZM7.44743 12.8C7.65328 15.2987 8.48459 17.6807 9.85343 19.7392C6.65207 18.9058 4.22122 16.1632 3.84943 12.8H7.44743Z" fill="#062640"/>
</svg>
