<svg viewBox="0 0 24 24" fill="none" xmlns="http://www.w3.org/2000/svg">
<path d="M21 5C21.5523 5 22 5.44771 22 6C22 6.51284 21.614 6.93551 21.1166 6.99327L21 7H8C7.44772 7 7 6.55228 7 6C7 5.48716 7.38604 5.06449 7.88338 5.00673L8 5H21Z" fill="#062640"/>
<path d="M21 11C21.5523 11 22 11.4477 22 12C22 12.5128 21.614 12.9355 21.1166 12.9933L21 13H8C7.44772 13 7 12.5523 7 12C7 11.4872 7.38604 11.0645 7.88338 11.0067L8 11H21Z" fill="#062640"/>
<path d="M21 17C21.5523 17 22 17.4477 22 18C22 18.5128 21.614 18.9355 21.1166 18.9933L21 19H8C7.44772 19 7 18.5523 7 18C7 17.4872 7.38604 17.0645 7.88338 17.0067L8 17H21Z" fill="#062640"/>
<path d="M3.01 5C3.56228 5 4.01 5.44771 4.01 6C4.01 6.51284 3.62396 6.93551 3.12662 6.99327L3.01 7C2.44771 7 2 6.55228 2 6C2 5.48716 2.38604 5.06449 2.88338 5.00673L3.01 5Z" fill="#062640"/>
<path d="M3.01 11C3.56228 11 4.01 11.4477 4.01 12C4.01 12.5128 3.62396 12.9355 3.12662 12.9933L3.01 13C2.44771 13 2 12.5523 2 12C2 11.4872 2.38604 11.0645 2.88338 11.0067L3.01 11Z" fill="#062640"/>
<path d="M3.01 17C3.56228 17 4.01 17.4477 4.01 18C4.01 18.5128 3.62396 18.9355 3.12662 18.9933L3.01 19C2.44771 19 2 18.5523 2 18C2 17.4872 2.38604 17.0645 2.88338 17.0067L3.01 17Z" fill="#062640"/>
</svg>
