<svg viewBox="0 0 24 24" fill="none" xmlns="http://www.w3.org/2000/svg">
<path fill-rule="evenodd" clip-rule="evenodd" d="M12.3463 2H2.94057C2.42111 2 2 2.42304 2 2.94488V12.3937C2 12.6445 2.09925 12.885 2.27587 13.0622L10.3554 21.1693C10.8839 21.7009 11.6021 22 12.351 22C13.0999 22 13.8181 21.7009 14.3473 21.1686L21.0909 14.3941C22.1869 13.2865 22.1869 11.5009 21.0928 10.3953L13.0114 2.27675C12.835 2.09955 12.5957 2 12.3463 2ZM3.88117 3.89042H11.956L19.7607 11.7302C20.1234 12.0968 20.1234 12.692 19.7587 13.0605L13.0168 19.8333C12.84 20.0111 12.6006 20.1108 12.351 20.1108L12.2273 20.1026C12.0233 20.0754 11.8326 19.9816 11.6855 19.8337L3.88117 12.0032V3.89042ZM8.59321 7.6699C8.59321 7.14806 8.1721 6.72502 7.65264 6.72502L7.53354 6.73138C7.06576 6.78596 6.70266 7.18533 6.70266 7.6699C6.70266 8.19175 7.12377 8.61479 7.64323 8.61479L7.76233 8.60843C8.23011 8.55385 8.59321 8.15447 8.59321 7.6699Z" fill="black"/>
</svg>
