<svg viewBox="0 0 24 24" fill="none" xmlns="http://www.w3.org/2000/svg">
<path fill-rule="evenodd" clip-rule="evenodd" d="M10.847 2C5.96095 2 2 6.02937 2 10.9998C2 15.9703 5.96095 19.9997 10.847 19.9997C12.9359 19.9997 14.8557 19.2632 16.3692 18.0316L19.982 21.7068L20.0746 21.79C20.4602 22.095 21.0178 22.0672 21.3721 21.7068C21.756 21.3163 21.756 20.6831 21.3721 20.2926L17.7594 16.6175C18.9701 15.0778 19.6941 13.1248 19.6941 10.9998C19.6941 6.02937 15.7331 2 10.847 2ZM15.8014 15.8572C16.9942 14.5984 17.7278 12.8862 17.7278 10.9998C17.7278 7.13385 14.647 3.9999 10.8467 3.9999C7.04646 3.9999 3.96572 7.13385 3.96572 10.9998C3.96572 14.8657 7.04646 17.9996 10.8467 17.9996C12.7012 17.9996 14.3844 17.2534 15.6218 16.0399C15.6474 16.0061 15.6754 15.9736 15.7059 15.9427C15.7363 15.9117 15.7682 15.8832 15.8014 15.8572Z" fill="#062640"/>
</svg>
