<svg viewBox="0 0 24 24" fill="none" xmlns="http://www.w3.org/2000/svg">
<path fill-rule="evenodd" clip-rule="evenodd" d="M13.1952 2C14.5591 2 15.6663 3.12659 15.7562 4.54119L15.7621 4.72727L15.762 5.636L19.1282 5.63636C19.6097 5.63636 20 6.04338 20 6.54545C20 7.00891 19.6674 7.39137 19.2376 7.44746L19.1282 7.45455L18.304 7.454L18.3048 19.2727C18.3048 20.7108 17.2545 21.8973 15.9143 21.9937L15.7379 22H7.26211C5.89814 22 4.79095 20.8734 4.70105 19.4588L4.69516 19.2727L4.695 7.454L3.87179 7.45455C3.39032 7.45455 3 7.04753 3 6.54545C3 6.082 3.33258 5.69954 3.76244 5.64345L3.87179 5.63636L7.237 5.636L7.23789 4.72727C7.23789 3.28921 8.28825 2.1027 9.62845 2.00632L9.80484 2H13.1952ZM6.438 7.454L6.43875 19.2727C6.43875 19.7381 6.75319 20.1142 7.15156 20.1736L7.26211 20.1818H15.7379C16.1496 20.1818 16.4984 19.8446 16.5536 19.3973L16.5613 19.2727L16.561 7.454H6.438ZM9.80484 3.81818H13.1952L13.3057 3.82637C13.7041 3.88582 14.0185 4.26186 14.0185 4.72727L14.018 5.636H8.981L8.98148 4.72727L8.9891 4.60273C9.04437 4.15545 9.39312 3.81818 9.80484 3.81818Z" fill="#062640"/>
</svg>
